<svg width="2649" height="7033" viewBox="0 0 2649 7033" fill="none" xmlns="http://www.w3.org/2000/svg">
<g opacity="0.7" filter="url(#filter0_f_1_4010)">
<path d="M1456.09 6055.37C1408.84 5934.8 1393.93 5666.66 1508.36 5621.85C1622.78 5577.04 1823.22 5772.53 1870.46 5893.11C1917.7 6013.68 1863.24 6147.75 1748.81 6192.56C1634.39 6237.37 1503.33 6175.95 1456.09 6055.37Z" fill="#831ED2"/>
</g>
<g opacity="0.5" filter="url(#filter1_f_1_4010)">
<path d="M631.668 6240.88C592.723 6141.48 558.46 5929.04 620.623 5904.7C682.786 5880.35 817.834 6053.33 856.78 6152.72C895.725 6252.12 876.903 6352.43 814.74 6376.77C752.578 6401.12 670.613 6340.27 631.668 6240.88Z" fill="#831ED2"/>
</g>
<g opacity="0.7" filter="url(#filter2_f_1_4010)">
<path d="M1404.78 3748.86C1357.53 3628.28 1342.62 3360.14 1457.05 3315.33C1571.47 3270.53 1771.91 3466.02 1819.15 3586.59C1866.39 3707.17 1811.93 3841.24 1697.5 3886.04C1583.08 3930.85 1452.02 3869.43 1404.78 3748.86Z" fill="#831ED2"/>
</g>
<g opacity="0.5" filter="url(#filter3_f_1_4010)">
<path d="M734.287 3302.36C695.341 3202.96 661.079 2990.52 723.242 2966.18C785.405 2941.84 920.453 3114.81 959.398 3214.21C998.344 3313.61 979.522 3413.92 917.359 3438.26C855.196 3462.6 773.232 3401.76 734.287 3302.36Z" fill="#831ED2"/>
</g>
<g opacity="0.7" filter="url(#filter4_f_1_4010)">
<path d="M684.313 4779.48C637.07 4658.91 622.158 4390.77 736.584 4345.96C851.01 4301.15 1051.44 4496.65 1098.69 4617.22C1145.93 4737.8 1091.47 4871.86 977.041 4916.67C862.615 4961.48 731.556 4900.06 684.313 4779.48Z" fill="#831ED2"/>
</g>
<g opacity="0.5" filter="url(#filter5_f_1_4010)">
<path d="M1402.89 5099.37C1363.95 4999.97 1329.69 4787.53 1391.85 4763.19C1454.01 4738.85 1589.06 4911.82 1628.01 5011.22C1666.95 5110.62 1648.13 5210.93 1585.97 5235.27C1523.8 5259.61 1441.84 5198.77 1402.89 5099.37Z" fill="#831ED2"/>
</g>
<g opacity="0.7" filter="url(#filter6_f_1_4010)">
<path d="M1090.41 2214.95C1043.16 2094.37 1028.25 1826.23 1142.68 1781.43C1257.1 1736.62 1457.54 1932.11 1504.78 2052.68C1552.02 2173.26 1497.56 2307.33 1383.13 2352.14C1268.71 2396.94 1137.65 2335.52 1090.41 2214.95Z" fill="#831ED2"/>
</g>
<g opacity="0.5" filter="url(#filter7_f_1_4010)">
<path d="M1126.84 2119.47C1087.9 2020.08 1053.64 1807.64 1115.8 1783.3C1177.96 1758.95 1313.01 1931.93 1351.96 2031.32C1390.9 2130.72 1372.08 2231.03 1309.92 2255.37C1247.75 2279.71 1165.79 2218.87 1126.84 2119.47Z" fill="#831ED2"/>
</g>
<g opacity="0.7" filter="url(#filter8_f_1_4010)">
<path d="M1090.41 957.948C1043.16 837.374 1028.25 569.235 1142.68 524.427C1257.1 479.619 1457.54 675.111 1504.78 795.685C1552.02 916.259 1497.56 1050.33 1383.13 1095.14C1268.71 1139.94 1137.65 1078.52 1090.41 957.948Z" fill="#831ED2"/>
</g>
<g opacity="0.5" filter="url(#filter9_f_1_4010)">
<path d="M1705.9 1277.83C1666.96 1178.44 1632.7 965.998 1694.86 941.656C1757.02 917.314 1892.07 1090.29 1931.02 1189.68C1969.96 1289.08 1951.14 1389.39 1888.98 1413.73C1826.81 1438.07 1744.85 1377.23 1705.9 1277.83Z" fill="#831ED2"/>
</g>
<defs>
<filter id="filter0_f_1_4010" x="1120.77" y="5315.3" width="1066.72" height="1191.91" filterUnits="userSpaceOnUse" color-interpolation-filters="sRGB">
<feFlood flood-opacity="0" result="BackgroundImageFix"/>
<feBlend mode="normal" in="SourceGraphic" in2="BackgroundImageFix" result="shape"/>
<feGaussianBlur stdDeviation="150" result="effect1_foregroundBlur_1_4010"/>
</filter>
<filter id="filter1_f_1_4010" x="286.439" y="5602.38" width="890.623" height="1079.76" filterUnits="userSpaceOnUse" color-interpolation-filters="sRGB">
<feFlood flood-opacity="0" result="BackgroundImageFix"/>
<feBlend mode="normal" in="SourceGraphic" in2="BackgroundImageFix" result="shape"/>
<feGaussianBlur stdDeviation="150" result="effect1_foregroundBlur_1_4010"/>
</filter>
<filter id="filter2_f_1_4010" x="1069.46" y="3008.79" width="1066.72" height="1191.91" filterUnits="userSpaceOnUse" color-interpolation-filters="sRGB">
<feFlood flood-opacity="0" result="BackgroundImageFix"/>
<feBlend mode="normal" in="SourceGraphic" in2="BackgroundImageFix" result="shape"/>
<feGaussianBlur stdDeviation="150" result="effect1_foregroundBlur_1_4010"/>
</filter>
<filter id="filter3_f_1_4010" x="389.058" y="2663.86" width="890.623" height="1079.76" filterUnits="userSpaceOnUse" color-interpolation-filters="sRGB">
<feFlood flood-opacity="0" result="BackgroundImageFix"/>
<feBlend mode="normal" in="SourceGraphic" in2="BackgroundImageFix" result="shape"/>
<feGaussianBlur stdDeviation="150" result="effect1_foregroundBlur_1_4010"/>
</filter>
<filter id="filter4_f_1_4010" x="348.993" y="4039.41" width="1066.72" height="1191.91" filterUnits="userSpaceOnUse" color-interpolation-filters="sRGB">
<feFlood flood-opacity="0" result="BackgroundImageFix"/>
<feBlend mode="normal" in="SourceGraphic" in2="BackgroundImageFix" result="shape"/>
<feGaussianBlur stdDeviation="150" result="effect1_foregroundBlur_1_4010"/>
</filter>
<filter id="filter5_f_1_4010" x="1057.67" y="4460.87" width="890.623" height="1079.76" filterUnits="userSpaceOnUse" color-interpolation-filters="sRGB">
<feFlood flood-opacity="0" result="BackgroundImageFix"/>
<feBlend mode="normal" in="SourceGraphic" in2="BackgroundImageFix" result="shape"/>
<feGaussianBlur stdDeviation="150" result="effect1_foregroundBlur_1_4010"/>
</filter>
<filter id="filter6_f_1_4010" x="755.086" y="1474.88" width="1066.72" height="1191.91" filterUnits="userSpaceOnUse" color-interpolation-filters="sRGB">
<feFlood flood-opacity="0" result="BackgroundImageFix"/>
<feBlend mode="normal" in="SourceGraphic" in2="BackgroundImageFix" result="shape"/>
<feGaussianBlur stdDeviation="150" result="effect1_foregroundBlur_1_4010"/>
</filter>
<filter id="filter7_f_1_4010" x="781.615" y="1480.97" width="890.623" height="1079.76" filterUnits="userSpaceOnUse" color-interpolation-filters="sRGB">
<feFlood flood-opacity="0" result="BackgroundImageFix"/>
<feBlend mode="normal" in="SourceGraphic" in2="BackgroundImageFix" result="shape"/>
<feGaussianBlur stdDeviation="150" result="effect1_foregroundBlur_1_4010"/>
</filter>
<filter id="filter8_f_1_4010" x="755.086" y="217.878" width="1066.72" height="1191.91" filterUnits="userSpaceOnUse" color-interpolation-filters="sRGB">
<feFlood flood-opacity="0" result="BackgroundImageFix"/>
<feBlend mode="normal" in="SourceGraphic" in2="BackgroundImageFix" result="shape"/>
<feGaussianBlur stdDeviation="150" result="effect1_foregroundBlur_1_4010"/>
</filter>
<filter id="filter9_f_1_4010" x="1360.68" y="639.336" width="890.623" height="1079.76" filterUnits="userSpaceOnUse" color-interpolation-filters="sRGB">
<feFlood flood-opacity="0" result="BackgroundImageFix"/>
<feBlend mode="normal" in="SourceGraphic" in2="BackgroundImageFix" result="shape"/>
<feGaussianBlur stdDeviation="150" result="effect1_foregroundBlur_1_4010"/>
</filter>
</defs>
</svg>
